<svg width="28" height="26" viewBox="0 0 28 26" fill="none" xmlns="http://www.w3.org/2000/svg">
<path fill-rule="evenodd" clip-rule="evenodd" d="M0.749477 0.0561662C0.324867 0.21209 0 0.664817 0 1.10047C0 1.37063 0.152729 1.70913 0.362801 1.9045C0.450028 1.98558 1.09204 2.31373 1.78953 2.63362C2.48701 2.95351 3.11254 3.26875 3.17953 3.33413C3.28197 3.43403 3.53836 4.47954 4.78611 9.88551C5.81083 14.3252 6.31495 16.41 6.41343 16.6149C6.7325 17.2788 7.31095 17.808 8.03456 18.0981L8.35083 18.2248L15.7668 18.2417C21.2384 18.2542 23.2622 18.242 23.4859 18.1952C23.9811 18.0916 24.453 17.8363 24.8688 17.447C25.5274 16.8306 25.477 16.9896 26.797 11.3586C27.4354 8.63544 27.9723 6.24247 27.9902 6.04097C28.1089 4.70172 27.1365 3.38561 25.7966 3.07223C25.4897 3.00045 24.338 2.98951 17.0194 2.9888C7.78617 2.98792 8.38832 2.9667 8.02888 3.30546C7.79466 3.52622 7.69966 3.74763 7.69553 4.08218C7.69045 4.49114 7.87389 4.81519 8.2362 5.03737L8.50753 5.20374L16.9662 5.2311L25.4248 5.25845L25.5857 5.43714C25.703 5.56746 25.7466 5.67151 25.7466 5.82169C25.7466 6.11855 23.5117 15.6062 23.403 15.7709C23.2013 16.0764 23.5228 16.0637 15.9597 16.0637C8.49628 16.0637 8.76904 16.0734 8.52264 15.799C8.44666 15.7144 8.02221 13.9647 6.94125 9.28036C5.95276 4.99666 5.41605 2.77417 5.31978 2.56551C5.11583 2.12345 4.78804 1.72434 4.42116 1.47136C3.98602 1.17132 1.50022 0.0396437 1.20088 0.00528567C1.06161 -0.0106897 0.873921 0.0104832 0.749477 0.0561662ZM10.5012 20.4498C9.39386 20.6579 8.44357 21.6479 8.25991 22.785C8.09246 23.822 8.58571 24.9266 9.48114 25.5199C10.334 26.085 11.3959 26.1504 12.3207 25.6946C13.8274 24.9522 14.3297 23.0447 13.3871 21.6442C12.7614 20.7144 11.6161 20.2404 10.5012 20.4498ZM20.2604 20.4498C19.8026 20.5358 19.2112 20.8525 18.8631 21.1979C18.3595 21.6976 18.1149 22.1832 18.0318 22.8478C17.847 24.3262 18.8174 25.6455 20.3116 25.947C22.1519 26.3184 23.8837 24.6799 23.614 22.8225C23.3835 21.2349 21.8515 20.151 20.2604 20.4498ZM11.5096 22.2949C11.7623 22.4229 11.8783 22.5471 11.9878 22.807C12.0999 23.0734 12.0932 23.3725 11.9689 23.6411C11.8484 23.9014 11.7254 24.018 11.4521 24.1314C11.0942 24.2798 10.6252 24.2044 10.3457 23.9536C9.94258 23.5918 9.94148 22.8072 10.3437 22.458C10.6644 22.1794 11.1481 22.1118 11.5096 22.2949ZM21.4313 22.3901C21.7401 22.6349 21.8415 22.864 21.8188 23.2652C21.7954 23.6793 21.6063 23.9567 21.2368 24.1188C20.2941 24.5326 19.4094 23.4818 19.9802 22.626C20.2871 22.1658 21.0018 22.0496 21.4313 22.3901Z" fill="black"/>
</svg>
