<svg width="20" height="20" viewBox="0 0 20 20" fill="none" xmlns="http://www.w3.org/2000/svg">
<path fill-rule="evenodd" clip-rule="evenodd" d="M1.32152 0.06642C0.724614 0.258465 0.259003 0.725423 0.0767937 1.31477C0.00316715 1.5529 0 1.69256 0 4.6821C0 7.67163 0.00316715 7.81129 0.0767937 8.04943C0.266354 8.66262 0.782248 9.15705 1.39664 9.31439C1.60266 9.36716 2.04227 9.37361 4.79515 9.36411L7.95699 9.35324L8.18154 9.26259C8.65365 9.07199 9.08328 8.64198 9.27468 8.16853L9.36461 7.94603V4.6821V1.41816L9.27468 1.19566C9.08328 0.722217 8.65365 0.292198 8.18154 0.1016L7.95699 0.0109526L4.75073 0.00282204C1.73482 -0.00480033 1.53122 -0.00104778 1.32152 0.06642ZM11.9569 0.06642C11.36 0.258465 10.8944 0.725423 10.7122 1.31477C10.6386 1.5529 10.6354 1.69256 10.6354 4.6821C10.6354 7.67163 10.6386 7.81129 10.7122 8.04943C10.9017 8.66262 11.4176 9.15705 12.032 9.31439C12.238 9.36716 12.6777 9.37361 15.4305 9.36411L18.5924 9.35324L18.8169 9.26259C19.289 9.07199 19.7187 8.64198 19.9101 8.16853L20 7.94603V4.6821V1.41816L19.9101 1.19566C19.7187 0.722217 19.289 0.292198 18.8169 0.1016L18.5924 0.0109526L15.3861 0.00282204C12.3702 -0.00480033 12.1666 -0.00104778 11.9569 0.06642ZM7.81306 1.33998C7.88446 1.38298 7.98123 1.47972 8.02811 1.55497L8.11339 1.69178V4.6821C8.11339 7.60311 8.11159 7.67542 8.03519 7.80215C7.99218 7.87352 7.89541 7.97027 7.82014 8.01714L7.68328 8.10239H4.69208H1.70088L1.56403 8.01714C1.48876 7.97027 1.39198 7.87352 1.34897 7.80215C1.27292 7.67597 1.27046 7.5931 1.26002 4.76805C1.25247 2.72827 1.26221 1.81566 1.29275 1.7023C1.3426 1.51721 1.51617 1.33701 1.69517 1.28444C1.76653 1.26348 3.04931 1.25117 4.75073 1.25508C7.6077 1.26165 7.68665 1.26384 7.81306 1.33998ZM18.4484 1.33998C18.5198 1.38298 18.6166 1.47972 18.6635 1.55497L18.7488 1.69178V4.6821C18.7488 7.60311 18.747 7.67542 18.6706 7.80215C18.6276 7.87352 18.5308 7.97027 18.4555 8.01714L18.3187 8.10239H15.3275H12.3363L12.1994 8.01714C12.1241 7.97027 12.0274 7.87352 11.9844 7.80215C11.9083 7.67597 11.9058 7.5931 11.8954 4.76805C11.8879 2.72827 11.8976 1.81566 11.9281 1.7023C11.978 1.51721 12.1516 1.33701 12.3306 1.28444C12.4019 1.26348 13.6847 1.25117 15.3861 1.25508C18.2431 1.26165 18.322 1.26384 18.4484 1.33998ZM1.32152 10.6986C0.724614 10.8907 0.259003 11.3576 0.0767937 11.947C0.00316715 12.1851 0 12.3248 0 15.3143C0 18.3039 0.00316715 18.4435 0.0767937 18.6817C0.266354 19.2948 0.782248 19.7893 1.39664 19.9466C1.60266 19.9994 2.04227 20.0058 4.79515 19.9963L7.95699 19.9855L8.18154 19.8948C8.65365 19.7042 9.08328 19.2742 9.27468 18.8008L9.36461 18.5783V15.3143V12.0504L9.27468 11.8279C9.08328 11.3544 8.65365 10.9244 8.18154 10.7338L7.95699 10.6432L4.75073 10.635C1.73482 10.6274 1.53122 10.6312 1.32152 10.6986ZM11.9569 10.6986C11.36 10.8907 10.8944 11.3576 10.7122 11.947C10.6386 12.1851 10.6354 12.3248 10.6354 15.3143C10.6354 18.3039 10.6386 18.4435 10.7122 18.6817C10.9017 19.2948 11.4176 19.7893 12.032 19.9466C12.238 19.9994 12.6777 20.0058 15.4305 19.9963L18.5924 19.9855L18.8169 19.8948C19.289 19.7042 19.7187 19.2742 19.9101 18.8008L20 18.5783V15.3143V12.0504L19.9101 11.8279C19.7187 11.3544 19.289 10.9244 18.8169 10.7338L18.5924 10.6432L15.3861 10.635C12.3702 10.6274 12.1666 10.6312 11.9569 10.6986ZM7.81306 11.9722C7.88446 12.0152 7.98123 12.112 8.02811 12.1872L8.11339 12.324V15.3143C8.11339 18.2353 8.11159 18.3076 8.03519 18.4344C7.99218 18.5058 7.89541 18.6025 7.82014 18.6494L7.68328 18.7346H4.69208H1.70088L1.56403 18.6494C1.48876 18.6025 1.39198 18.5058 1.34897 18.4344C1.27292 18.3082 1.27046 18.2253 1.26002 15.4003C1.25247 13.3605 1.26221 12.4479 1.29275 12.3345C1.3426 12.1494 1.51617 11.9692 1.69517 11.9167C1.76653 11.8957 3.04931 11.8834 4.75073 11.8873C7.6077 11.8939 7.68665 11.8961 7.81306 11.9722ZM18.4484 11.9722C18.5198 12.0152 18.6166 12.112 18.6635 12.1872L18.7488 12.324V15.3143C18.7488 18.2353 18.747 18.3076 18.6706 18.4344C18.6276 18.5058 18.5308 18.6025 18.4555 18.6494L18.3187 18.7346H15.3275H12.3363L12.1994 18.6494C12.1241 18.6025 12.0274 18.5058 11.9844 18.4344C11.9083 18.3082 11.9058 18.2253 11.8954 15.4003C11.8879 13.3605 11.8976 12.4479 11.9281 12.3345C11.978 12.1494 12.1516 11.9692 12.3306 11.9167C12.4019 11.8957 13.6847 11.8834 15.3861 11.8873C18.2431 11.8939 18.322 11.8961 18.4484 11.9722Z" fill="white"/>
</svg>
