<svg width="26" height="26" viewBox="0 0 26 26" fill="none" xmlns="http://www.w3.org/2000/svg">
<path fill-rule="evenodd" clip-rule="evenodd" d="M0.134337 25.5402C0.206866 25.648 0.35436 25.7955 0.462051 25.868L0.65782 26H12.9995H25.3412L25.537 25.868C26.1543 25.4519 26.1543 24.6909 25.537 24.2748C25.3844 24.1719 25.2599 24.1429 24.9726 24.1429H24.6041V19.3281C24.6041 14.5408 24.6034 14.5114 24.4791 14.1792C24.3105 13.7284 23.8758 13.2937 23.4251 13.125C23.1105 13.0073 22.9904 13 21.3548 13C19.7511 13 19.5944 13.009 19.3031 13.118C18.9015 13.2683 18.5261 13.5988 18.3066 13.995L18.1345 14.3058L18.1188 19.2243L18.103 24.1429H17.1759H16.2488V12.8281V1.51328L16.1238 1.17923C15.9552 0.728407 15.5205 0.293661 15.0698 0.12501C14.7552 0.00725555 14.6351 0 12.9995 0C11.3958 0 11.2391 0.00899506 10.9478 0.117987C10.5462 0.268299 10.1708 0.598755 9.95134 0.995022L9.77925 1.3058L9.76416 12.7243L9.74907 24.1429H8.82129H7.8935V16.0781L7.8935 8.01328L7.76852 7.67923C7.59991 7.22841 7.16526 6.79366 6.71454 6.62501C6.39994 6.50725 6.27983 6.5 4.64422 6.5C3.04047 6.5 2.88381 6.509 2.59253 6.61799C2.19096 6.7683 1.81549 7.09875 1.59605 7.49502L1.42395 7.8058L1.40864 15.9743L1.39338 24.1429H1.02557C0.605425 24.1429 0.358132 24.2704 0.134337 24.6026C-0.0447791 24.8684 -0.0447791 25.2744 0.134337 25.5402ZM4.64422 8.35714H6.03677L6.03677 16.25V24.1429H4.64422H3.25167L3.25167 16.25L3.25167 8.35714H4.64422ZM12.9995 1.85714H14.3921L14.3921 13V24.1429H12.9995H11.607V13L11.607 1.85714H12.9995ZM21.3548 14.8571H22.7474V19.5V24.1429H21.3548H19.9623V19.5V14.8571L21.3548 14.8571Z" fill="black"/>
</svg>
