<svg width="30" height="25" viewBox="0 0 30 25" fill="none" xmlns="http://www.w3.org/2000/svg">
<path fill-rule="evenodd" clip-rule="evenodd" d="M6.47475 0.0731665C4.80874 0.388559 3.32825 1.17508 2.19905 2.34467C1.32074 3.25432 0.756807 4.18064 0.385171 5.32393C-0.25187 7.28363 -0.0912297 9.61484 0.811617 11.5116C1.44879 12.8502 1.46409 12.8671 7.35079 18.7592C10.3542 21.7654 12.9709 24.3311 13.1655 24.4607C14.1765 25.1342 15.5326 25.1811 16.545 24.5777C16.8328 24.4061 18.3945 22.8903 22.4776 18.8191C25.5257 15.78 28.1906 13.0687 28.3996 12.7941C30.2067 10.4204 30.5128 7.07994 29.1679 4.41335C27.1546 0.421765 22.3651 -1.08879 18.2393 0.966679C17.3591 1.4052 16.7359 1.86995 15.7857 2.79647L14.9018 3.65837L13.9636 2.71193C12.5677 1.30366 11.4376 0.609845 9.87108 0.199284C9.32311 0.0556999 9.03994 0.0248182 8.0888 0.00509367C7.3148 -0.0109117 6.80554 0.0105396 6.47475 0.0731665ZM9.27249 2.29865C9.9374 2.46846 10.5959 2.74759 11.0868 3.06777C11.3037 3.20923 12.1248 3.95836 12.9113 4.73246C14.9956 6.78361 14.8291 6.7779 16.7694 4.86383C17.5194 4.12399 18.2677 3.42819 18.4323 3.31761C19.1332 2.84701 20.1132 2.44861 20.9224 2.30555C21.5038 2.20275 22.6875 2.22055 23.2743 2.34095C25.3545 2.76778 27.0421 4.38991 27.6211 6.51935C27.8273 7.27752 27.8273 8.68334 27.6211 9.4415C27.4406 10.1053 27.0985 10.8327 26.7133 11.3716C26.3702 11.8517 15.8089 22.483 15.4632 22.6964C15.1565 22.8856 14.6608 22.8882 14.3618 22.7022C14.2408 22.627 11.7608 20.1804 8.8505 17.2653C4.8726 13.2809 3.48038 11.8457 3.24231 11.4839C2.82192 10.8452 2.55472 10.2428 2.35164 9.47544C2.12262 8.61042 2.11158 7.19105 2.32756 6.38653C2.77961 4.70264 3.89 3.36616 5.41645 2.6685C6.64749 2.10592 8.00699 1.97555 9.27249 2.29865Z" fill="black"/>
</svg>
