<svg width="21" height="21" viewBox="0 0 21 21" fill="none" xmlns="http://www.w3.org/2000/svg">
<path fill-rule="evenodd" clip-rule="evenodd" d="M10.5 18.5408L11.1311 17.8289C11.847 17.0098 12.4912 16.2306 13.0639 15.4912L13.5373 14.8672C15.5124 12.2057 16.5 10.0945 16.5 8.53345C16.5 5.20127 13.8137 2.5 10.5 2.5C7.18629 2.5 4.5 5.20127 4.5 8.53345C4.5 10.0945 5.48758 12.2057 7.46275 14.8672L7.93608 15.4912C8.67239 16.4418 9.52703 17.4583 10.5 18.5408Z" stroke="#999999" stroke-linecap="round" stroke-linejoin="round"/>
<path d="M10.5 11C11.8807 11 13 9.88071 13 8.5C13 7.11929 11.8807 6 10.5 6C9.11929 6 8 7.11929 8 8.5C8 9.88071 9.11929 11 10.5 11Z" stroke="#999999" stroke-linecap="round" stroke-linejoin="round"/>
</svg>
