<svg width="97" height="52" viewBox="0 0 97 52" fill="none" xmlns="http://www.w3.org/2000/svg">
<g clip-path="url(#clip0_0_532)">
<path d="M0.495913 20.1387L12.723 10.9401C13.9888 10.0875 15.3788 10.3133 16.0292 11.6954L24.2609 30.5247C24.5055 31.0749 25.2626 31.4513 26.1207 31.4513H40.7183C42.0462 31.4513 42.9839 32.3233 42.5568 33.1643L37.8799 42.407C37.6139 42.9338 36.8743 43.2894 36.0414 43.2894H12.4628C11.63 43.2894 10.8903 42.9338 10.6224 42.407L0.101804 21.4196C-0.121459 20.9757 0.02803 20.4865 0.495913 20.1387Z" fill="#FF4B07"/>
<path d="M26.278 28.3859L38.0741 0.942175C38.3129 0.385435 39.0739 0 39.9417 0H57.3543C58.692 0 59.6297 0.883776 59.187 1.72732L52.7765 13.9328C52.0795 15.2617 54.6014 16.2778 56.0322 15.2448L76.5744 0.416581C76.9413 0.151838 77.4577 0 77.9994 0H95.0548C96.7458 0 97.6291 1.34578 96.4817 2.17764L72.6469 19.4716C72.0121 19.9323 71.9596 20.6305 72.5246 21.1314L94.9927 41.0819C95.9556 41.9372 95.0431 43.1596 93.4415 43.1596H76.1531C75.5513 43.1596 74.9824 42.9728 74.6136 42.6535L51.3204 22.4123C50.3846 21.5986 48.4704 21.7998 47.954 22.7666L44.5992 29.1114C44.3254 29.624 43.5994 29.9679 42.784 29.9718L28.1553 30.0406C26.8604 30.0471 25.9188 29.2191 26.2741 28.3872L26.278 28.3859Z" fill="#FF4B07"/>
</g>
<defs>
<clipPath id="clip0_0_532">
<rect width="97" height="52" fill="white"/>
</clipPath>
</defs>
</svg>
