<svg width="25" height="25" viewBox="0 0 25 25" fill="none" xmlns="http://www.w3.org/2000/svg">
<path d="M21.6406 20.5469L17.4375 16.3438C18.5938 14.9375 19.3125 13.1719 19.3125 11.2188C19.3281 6.76562 15.6875 3.125 11.2188 3.125C6.75 3.125 3.125 6.76562 3.125 11.2188C3.125 15.6719 6.76562 19.3125 11.2188 19.3125C13.1719 19.3125 14.9375 18.5938 16.3438 17.4375L20.5469 21.6406C20.7031 21.7969 20.9062 21.875 21.0938 21.875C21.2812 21.875 21.5 21.7969 21.6406 21.6406C21.9531 21.3438 21.9531 20.8438 21.6406 20.5469ZM4.6875 11.2188C4.6875 7.625 7.625 4.6875 11.2188 4.6875C14.8125 4.6875 17.75 7.625 17.75 11.2188C17.75 14.8125 14.8125 17.75 11.2188 17.75C7.625 17.75 4.6875 14.8281 4.6875 11.2188Z" fill="#999999"/>
</svg>
