<svg width="22" height="22" viewBox="0 0 22 22" fill="none" xmlns="http://www.w3.org/2000/svg">
<g clip-path="url(#clip0_0_509)">
<path d="M11.0027 0.719727H10.9974C5.34444 0.719727 0.747559 5.33032 0.747559 11C0.747559 13.2488 1.47025 15.3333 2.69929 17.0256L1.42174 20.8444L5.36266 19.5813C6.98366 20.6583 8.91751 21.2802 11.0027 21.2802C16.6557 21.2802 21.2525 16.6682 21.2525 11C21.2525 5.33169 16.6556 0.719727 11.0027 0.719727Z" fill="#5ACF5F"/>
<path d="M16.9683 15.2365C16.7209 15.9371 15.7392 16.5177 14.9563 16.6876C14.4204 16.8018 13.7208 16.8933 11.3655 15.914C8.35231 14.6624 6.41205 11.5924 6.26102 11.3932C6.116 11.194 5.04346 9.76783 5.04346 8.29237C5.04346 6.81721 5.79051 6.09873 6.09181 5.7906C6.33892 5.53721 6.74781 5.4218 7.13999 5.4218C7.26692 5.4218 7.38087 5.42807 7.48361 5.43327C7.78473 5.44625 7.93581 5.46408 8.13463 5.94086C8.38196 6.53851 8.98412 8.01363 9.05609 8.1654C9.12918 8.31708 9.20202 8.52251 9.09958 8.72163C9.00333 8.92736 8.91889 9.01854 8.76764 9.19321C8.61635 9.36822 8.47266 9.50181 8.32159 9.68924C8.18327 9.85244 8.02686 10.0273 8.20123 10.3293C8.37547 10.6249 8.97768 11.6103 9.86442 12.4019C11.0092 13.4235 11.9368 13.7499 12.2688 13.8888C12.5162 13.9917 12.8109 13.9671 12.9914 13.7744C13.2208 13.5263 13.5043 13.1151 13.7925 12.7105C13.9975 12.42 14.2564 12.384 14.5281 12.4867C14.8049 12.5831 16.2697 13.3093 16.5709 13.4596C16.8719 13.6112 17.0708 13.6831 17.1438 13.8104C17.2156 13.9374 17.2156 14.5351 16.9683 15.2365Z" fill="#FCFCFC"/>
</g>
<defs>
<clipPath id="clip0_0_509">
<rect width="22" height="22" fill="white"/>
</clipPath>
</defs>
</svg>
