<svg width="25" height="13" viewBox="0 0 25 13" fill="none" xmlns="http://www.w3.org/2000/svg">
<path d="M17.5625 0.593818C17.4835 0.672256 17.4207 0.765575 17.3778 0.868394C17.335 0.971213 17.313 1.0815 17.313 1.19288C17.313 1.30427 17.335 1.41455 17.3778 1.51737C17.4207 1.62019 17.4835 1.71351 17.5625 1.79194L21.4438 5.67319H1.58191C1.35813 5.67319 1.14352 5.76209 0.985288 5.92032C0.827054 6.07856 0.738159 6.29317 0.738159 6.51694C0.738159 6.74072 0.827054 6.95533 0.985288 7.11356C1.14352 7.2718 1.35813 7.36069 1.58191 7.36069H21.4269L17.5625 11.2166C17.4054 11.3747 17.3172 11.5886 17.3172 11.8115C17.3172 12.0344 17.4054 12.2482 17.5625 12.4063C17.7206 12.5635 17.9345 12.6517 18.1574 12.6517C18.3803 12.6517 18.5941 12.5635 18.7522 12.4063L24.1185 7.04007C24.1907 6.97077 24.2482 6.88759 24.2874 6.79551C24.3267 6.70344 24.3469 6.60438 24.3469 6.50429C24.3469 6.40419 24.3267 6.30513 24.2874 6.21306C24.2482 6.12099 24.1907 6.0378 24.1185 5.96851L18.7607 0.593818C18.6822 0.514735 18.5889 0.451965 18.4861 0.409129C18.3833 0.366293 18.273 0.344238 18.1616 0.344238C18.0502 0.344238 17.9399 0.366293 17.8371 0.409129C17.7343 0.451965 17.641 0.514735 17.5625 0.593818Z" fill="#999999"/>
</svg>
