<svg width="24" height="13" viewBox="0 0 24 13" fill="none" xmlns="http://www.w3.org/2000/svg">
<path d="M7.03302 0.593818C7.11061 0.672256 7.17219 0.765575 7.21422 0.868394C7.25625 0.971213 7.27789 1.0815 7.27789 1.19288C7.27789 1.30427 7.25625 1.41455 7.21422 1.51737C7.17219 1.62019 7.11061 1.71351 7.03302 1.79194L3.225 5.67319H22.7121C22.9317 5.67319 23.1422 5.76209 23.2975 5.92032C23.4527 6.07856 23.54 6.29317 23.54 6.51694C23.54 6.74072 23.4527 6.95533 23.2975 7.11356C23.1422 7.2718 22.9317 7.36069 22.7121 7.36069H3.24156L7.03302 11.2166C7.1872 11.3747 7.27374 11.5886 7.27374 11.8115C7.27374 12.0344 7.1872 12.2482 7.03302 12.4063C6.87791 12.5635 6.6681 12.6517 6.4494 12.6517C6.2307 12.6517 6.02088 12.5635 5.86578 12.4063L0.600777 7.04007C0.529914 6.97077 0.473529 6.88759 0.43501 6.79551C0.396492 6.70344 0.376636 6.60438 0.376636 6.50429C0.376636 6.40419 0.396492 6.30513 0.43501 6.21306C0.473529 6.12099 0.529914 6.0378 0.600777 5.96851L5.8575 0.593818C5.93446 0.514735 6.02602 0.451965 6.1269 0.409129C6.22777 0.366293 6.33598 0.344238 6.44526 0.344238C6.55454 0.344238 6.66274 0.366293 6.76362 0.409129C6.8645 0.451965 6.95606 0.514735 7.03302 0.593818Z" fill="#999999"/>
</svg>
