<svg width="21" height="20" viewBox="0 0 21 20" fill="none" xmlns="http://www.w3.org/2000/svg">
<path fill-rule="evenodd" clip-rule="evenodd" d="M0.562108 0.0432048C0.24365 0.163146 0 0.511398 0 0.846519C0 1.05433 0.114547 1.31471 0.272101 1.465C0.337521 1.52737 0.819033 1.77979 1.34214 2.02586C1.86526 2.27193 2.3344 2.51442 2.38465 2.56471C2.46148 2.64156 2.65377 3.4458 3.58958 7.60424C4.35812 11.0194 4.73621 12.6231 4.81007 12.7807C5.04938 13.2914 5.48321 13.6985 6.02592 13.9216L6.26312 14.0191L11.8251 14.0321C15.9288 14.0417 17.4466 14.0323 17.6145 13.9963C17.9858 13.9166 18.3398 13.7202 18.6516 13.4208C19.1456 12.9466 19.1078 13.069 20.0978 8.73742C20.5765 6.64265 20.9792 4.8019 20.9926 4.6469C21.0817 3.61671 20.3524 2.60432 19.3474 2.36326C19.1173 2.30804 18.2535 2.29962 12.7645 2.29908C5.83963 2.2984 6.29124 2.28207 6.02166 2.54266C5.846 2.71247 5.77475 2.88279 5.77164 3.14014C5.76784 3.45472 5.90542 3.70399 6.17715 3.8749L6.38065 4.00288L12.7246 4.02392L19.0686 4.04496L19.1892 4.18241C19.2773 4.28266 19.3099 4.3627 19.3099 4.47823C19.3099 4.70658 17.6338 12.0048 17.5523 12.1314C17.4009 12.3664 17.6421 12.3567 11.9698 12.3567C6.37221 12.3567 6.57678 12.3642 6.39198 12.1531C6.33499 12.088 6.01666 10.7421 5.20594 7.13874C4.46457 3.84359 4.06204 2.13398 3.98984 1.97347C3.83687 1.63342 3.59103 1.32641 3.31587 1.13181C2.98951 0.901019 1.12517 0.0304952 0.900663 0.0040659C0.796206 -0.00822285 0.655441 0.00806397 0.562108 0.0432048ZM7.87588 15.7306C7.04539 15.8907 6.33268 16.6523 6.19493 17.5269C6.06934 18.3246 6.43928 19.1743 7.11085 19.6307C7.7505 20.0654 8.54691 20.1157 9.24052 19.7651C10.3706 19.194 10.7472 17.7267 10.0403 16.6494C9.57105 15.9341 8.71207 15.5695 7.87588 15.7306ZM15.1953 15.7306C14.852 15.7968 14.4084 16.0403 14.1473 16.3061C13.7696 16.6904 13.5862 17.064 13.5238 17.5752C13.3852 18.7125 14.1131 19.7273 15.2337 19.9592C16.614 20.245 17.9128 18.9846 17.7105 17.5557C17.5377 16.3345 16.3886 15.5007 15.1953 15.7306ZM8.63222 17.1499C8.82174 17.2484 8.90875 17.3439 8.99083 17.5438C9.07494 17.7488 9.0699 17.9789 8.97665 18.1855C8.88629 18.3857 8.79408 18.4754 8.58905 18.5626C8.32063 18.6768 7.96888 18.6188 7.75926 18.4258C7.45693 18.1476 7.45611 17.544 7.75778 17.2754C7.99828 17.0611 8.36107 17.0091 8.63222 17.1499ZM16.0734 17.2231C16.3051 17.4115 16.3811 17.5877 16.3641 17.8963C16.3466 18.2148 16.2047 18.4282 15.9276 18.5529C15.2205 18.8712 14.5571 18.0629 14.9851 17.4046C15.2153 17.0506 15.7513 16.9612 16.0734 17.2231Z" fill="white"/>
</svg>
