<svg width="20" height="20" viewBox="0 0 20 20" fill="none" xmlns="http://www.w3.org/2000/svg">
<path fill-rule="evenodd" clip-rule="evenodd" d="M0.103336 19.6463C0.159128 19.7292 0.272585 19.8427 0.355424 19.8985L0.506015 20H9.99963H19.4932L19.6438 19.8985C20.1187 19.5784 20.1187 18.993 19.6438 18.6729C19.5264 18.5938 19.4307 18.5714 19.2097 18.5714H18.9262V14.8678C18.9262 11.1852 18.9257 11.1626 18.8301 10.9071C18.7004 10.5603 18.366 10.2259 18.0193 10.0962C17.7773 10.0056 17.6849 10 16.4268 10C15.1931 10 15.0726 10.0069 14.8486 10.0908C14.5396 10.2064 14.2508 10.4606 14.082 10.7654L13.9496 11.0045L13.9375 14.7879L13.9254 18.5714H13.2122H12.4991V9.86777V1.16406L12.4029 0.907097C12.2732 0.560312 11.9389 0.225891 11.5922 0.096159C11.3502 0.00557899 11.2578 0 9.99963 0C8.76597 0 8.64546 0.00691795 8.4214 0.0907574C8.1125 0.206383 7.82368 0.460579 7.65488 0.7654L7.5225 1.00446L7.51089 9.78795L7.49929 18.5714H6.78561H6.07193V12.3678L6.07193 6.16406L5.97579 5.9071C5.84608 5.56031 5.51174 5.22589 5.16503 5.09616C4.92303 5.00558 4.83064 5 3.57248 5C2.33882 5 2.21831 5.00692 1.99426 5.09076C1.68535 5.20638 1.39653 5.46058 1.22773 5.7654L1.09535 6.00446L1.08357 12.2879L1.07183 18.5714H0.788899C0.465712 18.5714 0.275486 18.6696 0.103336 18.9251C-0.0344455 19.1296 -0.0344455 19.4419 0.103336 19.6463ZM3.57248 6.42857H4.64367L4.64367 12.5V18.5714H3.57248H2.50129L2.50129 12.5V6.42857H3.57248ZM9.99963 1.42857H11.0708V10V18.5714H9.99963H8.92844V10V1.42857H9.99963ZM16.4268 11.4286H17.498V15V18.5714H16.4268H15.3556V15V11.4286H16.4268Z" fill="#999999"/>
</svg>
