<svg width="23" height="20" viewBox="0 0 23 20" fill="none" xmlns="http://www.w3.org/2000/svg">
<path fill-rule="evenodd" clip-rule="evenodd" d="M4.96397 0.555607C3.6867 0.795305 2.55166 1.39306 1.68594 2.28195C1.01257 2.97328 0.580218 3.67729 0.295298 4.54619C-0.1931 6.03556 -0.0699428 7.80728 0.62224 9.2488C1.11074 10.2661 1.12247 10.279 5.6356 14.757C7.93822 17.0417 9.94434 18.9916 10.0936 19.0902C10.8687 19.602 11.9083 19.6376 12.6845 19.179C12.9052 19.0487 14.1024 17.8966 17.2328 14.8025C19.5697 12.4928 21.6128 10.4322 21.7731 10.2235C23.1584 8.41947 23.3932 5.88076 22.3621 3.85415C20.8185 0.820541 17.1465 -0.327477 13.9835 1.23468C13.3086 1.56795 12.8309 1.92117 12.1024 2.62532L11.4247 3.28036L10.7054 2.56107C9.6352 1.49078 8.76886 0.963482 7.56783 0.651456C7.14772 0.542332 6.93062 0.518862 6.20142 0.503871C5.60801 0.491707 5.21758 0.50801 4.96397 0.555607ZM7.10891 2.24697C7.61867 2.37603 8.12349 2.58817 8.4999 2.8315C8.6662 2.93901 9.29566 3.50835 9.8987 4.09667C11.4966 5.65554 11.3689 5.6512 12.8565 4.19651C13.4315 3.63423 14.0052 3.10542 14.1315 3.02139C14.6688 2.66373 15.4201 2.36094 16.0405 2.25222C16.4862 2.17409 17.3937 2.18761 17.8436 2.27912C19.4385 2.60352 20.7323 3.83633 21.1762 5.45471C21.3343 6.03091 21.3343 7.09934 21.1762 7.67554C21.0378 8.18002 20.7755 8.73286 20.4802 9.1424C20.2172 9.50727 12.1201 17.5871 11.8552 17.7492C11.62 17.8931 11.24 17.8951 11.0107 17.7537C10.918 17.6965 9.01661 15.8371 6.78538 13.6216C3.73566 10.5935 2.66829 9.50273 2.48577 9.22775C2.16347 8.74235 1.95862 8.2845 1.80292 7.70133C1.62734 7.04392 1.61887 5.9652 1.78446 5.35376C2.13104 4.07401 2.98233 3.05828 4.15261 2.52806C5.09641 2.1005 6.13869 2.00142 7.10891 2.24697Z" fill="#999999"/>
</svg>
