<svg width="15" height="15" viewBox="0 0 15 15" fill="none" xmlns="http://www.w3.org/2000/svg">
<g clip-path="url(#clip0_11_130)">
<path d="M7.5 0C3.35781 0 0 3.35781 0 7.5C0 11.6422 3.35781 15 7.5 15C11.6422 15 15 11.6422 15 7.5C15 3.35781 11.6422 0 7.5 0ZM7.89719 10.9809C7.74687 11.1297 7.5375 11.2038 7.26875 11.2038C6.99406 11.2038 6.78156 11.1316 6.63125 10.9859C6.48094 10.84 6.40531 10.635 6.40531 10.37C6.40531 10.0953 6.47906 9.88781 6.62625 9.74687C6.77344 9.60656 6.9875 9.53625 7.26875 9.53625C7.54031 9.53625 7.75031 9.60781 7.89969 9.75156C8.04844 9.89563 8.12281 10.1016 8.12281 10.37C8.12281 10.6281 8.04781 10.8316 7.89719 10.9809ZM9.51594 6.50906C9.3525 6.77063 9.04156 7.065 8.58406 7.39219C8.27 7.62438 8.07125 7.80094 7.98844 7.92188C7.90469 8.04344 7.86344 8.20187 7.86344 8.39781V8.69187H6.56375V8.32875C6.56375 8.015 6.63063 7.74156 6.765 7.50969C6.89906 7.2775 7.14438 7.03062 7.50063 6.76906C7.84406 6.52375 8.07031 6.32438 8.18 6.17063C8.28969 6.01688 8.34406 5.845 8.34406 5.65562C8.34406 5.44312 8.26562 5.28125 8.10875 5.17C7.95188 5.05875 7.73281 5.00313 7.45125 5.00313C6.96094 5.00313 6.40156 5.16344 5.77375 5.48406L5.23906 4.40969C5.96812 4.00094 6.74188 3.79656 7.55938 3.79656C8.23281 3.79656 8.76875 3.95844 9.16594 4.28219C9.56312 4.60594 9.76156 5.0375 9.76156 5.57719C9.76125 5.93687 9.67969 6.2475 9.51594 6.50906Z" fill="#00A7DF"/>
</g>
<defs>
<clipPath id="clip0_11_130">
<rect width="15" height="15" fill="white"/>
</clipPath>
</defs>
</svg>
