<svg width="42" height="42" viewBox="0 0 42 42" fill="none" xmlns="http://www.w3.org/2000/svg">
<path d="M28.875 11.8125C28.752 11.9345 28.6543 12.0797 28.5877 12.2396C28.5211 12.3995 28.4867 12.5711 28.4867 12.7444C28.4867 12.9176 28.5211 13.0892 28.5877 13.2491C28.6543 13.4091 28.752 13.5542 28.875 13.6762L34.9125 19.7137H4.01624C3.66814 19.7137 3.3343 19.852 3.08816 20.0982C2.84202 20.3443 2.70374 20.6781 2.70374 21.0262C2.70374 21.3743 2.84202 21.7082 3.08816 21.9543C3.3343 22.2005 3.66814 22.3387 4.01624 22.3387H34.8862L28.875 28.3369C28.6305 28.5828 28.4933 28.9154 28.4933 29.2622C28.4933 29.6089 28.6305 29.9416 28.875 30.1875C29.1209 30.4319 29.4536 30.5692 29.8003 30.5692C30.147 30.5692 30.4797 30.4319 30.7256 30.1875L39.0731 21.84C39.1855 21.7322 39.2749 21.6028 39.3359 21.4596C39.397 21.3163 39.4285 21.1623 39.4285 21.0066C39.4285 20.8509 39.397 20.6968 39.3359 20.5535C39.2749 20.4103 39.1855 20.2809 39.0731 20.1731L30.7387 11.8125C30.6167 11.6895 30.4716 11.5918 30.3116 11.5252C30.1517 11.4586 29.9801 11.4243 29.8069 11.4243C29.6336 11.4243 29.462 11.4586 29.3021 11.5252C29.1422 11.5918 28.997 11.6895 28.875 11.8125Z" fill="white"/>
</svg>
