<svg width="27" height="27" viewBox="0 0 27 27" fill="none" xmlns="http://www.w3.org/2000/svg">
<path d="M18.5625 7.59376C18.4835 7.67219 18.4207 7.76551 18.3778 7.86833C18.335 7.97115 18.313 8.08143 18.313 8.19282C18.313 8.3042 18.335 8.41449 18.3778 8.51731C18.4207 8.62013 18.4835 8.71344 18.5625 8.79188L22.4438 12.6731H2.58191C2.35813 12.6731 2.14352 12.762 1.98529 12.9203C1.82705 13.0785 1.73816 13.2931 1.73816 13.5169C1.73816 13.7407 1.82705 13.9553 1.98529 14.1135C2.14352 14.2717 2.35813 14.3606 2.58191 14.3606H22.4269L18.5625 18.2166C18.4054 18.3747 18.3172 18.5885 18.3172 18.8114C18.3172 19.0343 18.4054 19.2482 18.5625 19.4063C18.7206 19.5634 18.9345 19.6516 19.1574 19.6516C19.3803 19.6516 19.5941 19.5634 19.7522 19.4063L25.1185 14.04C25.1907 13.9707 25.2482 13.8875 25.2874 13.7955C25.3267 13.7034 25.3469 13.6043 25.3469 13.5042C25.3469 13.4041 25.3267 13.3051 25.2874 13.213C25.2482 13.1209 25.1907 13.0377 25.1185 12.9684L19.7607 7.59376C19.6822 7.51467 19.5889 7.4519 19.4861 7.40907C19.3833 7.36623 19.273 7.34418 19.1616 7.34418C19.0502 7.34418 18.9399 7.36623 18.8371 7.40907C18.7343 7.4519 18.641 7.51467 18.5625 7.59376Z" fill="#38A7DF"/>
</svg>
