<svg width="24" height="24" viewBox="0 0 24 24" fill="none" xmlns="http://www.w3.org/2000/svg">
<path fill-rule="evenodd" clip-rule="evenodd" d="M20.7972 3.20277C21.0676 3.47314 21.0676 3.91148 20.7972 4.18184L4.18184 20.7972C3.91148 21.0676 3.47314 21.0676 3.20277 20.7972C2.93241 20.5269 2.93241 20.0885 3.20277 19.8182L19.8182 3.20277C20.0885 2.93241 20.5269 2.93241 20.7972 3.20277Z" fill="#262626"/>
<path fill-rule="evenodd" clip-rule="evenodd" d="M3.20277 3.20277C3.47314 2.93241 3.91148 2.93241 4.18184 3.20277L20.7972 19.8182C21.0676 20.0885 21.0676 20.5269 20.7972 20.7972C20.5269 21.0676 20.0885 21.0676 19.8182 20.7972L3.20277 4.18184C2.93241 3.91148 2.93241 3.47314 3.20277 3.20277Z" fill="#262626"/>
<path fill-rule="evenodd" clip-rule="evenodd" d="M20.7972 3.20277C21.0676 3.47314 21.0676 3.91148 20.7972 4.18184L4.18184 20.7972C3.91148 21.0676 3.47314 21.0676 3.20277 20.7972C2.93241 20.5269 2.93241 20.0885 3.20277 19.8182L19.8182 3.20277C20.0885 2.93241 20.5269 2.93241 20.7972 3.20277Z" stroke="#262626" stroke-width="0.4" stroke-linecap="round" stroke-linejoin="round"/>
<path fill-rule="evenodd" clip-rule="evenodd" d="M3.20277 3.20277C3.47314 2.93241 3.91148 2.93241 4.18184 3.20277L20.7972 19.8182C21.0676 20.0885 21.0676 20.5269 20.7972 20.7972C20.5269 21.0676 20.0885 21.0676 19.8182 20.7972L3.20277 4.18184C2.93241 3.91148 2.93241 3.47314 3.20277 3.20277Z" stroke="#262626" stroke-width="0.4" stroke-linecap="round" stroke-linejoin="round"/>
</svg>
