<svg width="77" height="77" viewBox="0 0 77 77" fill="none" xmlns="http://www.w3.org/2000/svg">
<path d="M0 0H77V0C77 42.5259 42.5259 77 0 77V77V0Z" fill="#F04E4E"/>
<path d="M43.908 20.3233H38.8823C39.4134 19.8674 39.7738 19.2407 39.9032 18.5479C40.0326 17.8552 39.9232 17.1385 39.5932 16.5177C39.4119 16.1731 39.1634 15.8694 38.8628 15.6248C38.5623 15.3802 38.2158 15.1999 37.8444 15.0947C37.4875 14.9967 37.1144 14.9748 36.7486 15.0304C36.3829 15.0859 36.0326 15.2177 35.7197 15.4174C34.3033 16.419 33.1752 17.7838 32.451 19.3719C31.7284 17.7827 30.6 16.4175 29.1822 15.4174C28.871 15.2174 28.522 15.0854 28.1576 15.0299C27.7931 14.9743 27.4212 14.9964 27.0657 15.0947C26.6925 15.1958 26.3442 15.3746 26.0431 15.6196C25.742 15.8646 25.4947 16.1705 25.3169 16.5177C24.9869 17.1385 24.8775 17.8552 25.0069 18.5479C25.1363 19.2407 25.4967 19.8674 26.0278 20.3233H21.1247C20.5612 20.3233 20.0208 20.55 19.6223 20.9534C19.2239 21.3568 19 21.9039 19 22.4744V27.8023C19.0036 28.2836 19.1666 28.7498 19.4629 29.1263C19.7593 29.5028 20.1717 29.7677 20.6344 29.8788V40.849C20.6344 41.4195 20.8582 41.9666 21.2567 42.37C21.6551 42.7734 22.1956 43 22.7591 43H41.5545C42.3 43 43.0151 42.7002 43.5423 42.1664C44.0694 41.6327 44.3656 40.9088 44.3656 40.154V29.8788C44.8283 29.7677 45.2407 29.5028 45.5371 29.1263C45.8334 28.7498 45.9964 28.2836 46 27.8023V22.4744C45.998 21.9102 45.7779 21.3693 45.387 20.9673C44.996 20.5653 44.4651 20.3342 43.908 20.3233ZM30.6123 28.4972V21.7629H31.168C31.4867 21.7629 31.7564 21.7629 31.9852 21.7629H32.9576C33.1783 21.7629 33.4479 21.7629 33.7748 21.7629H34.4613V28.5055L30.6123 28.4972ZM36.4552 16.5922C36.6064 16.498 36.7747 16.4355 36.9502 16.4085C37.1257 16.3815 37.3047 16.3905 37.4767 16.435C37.666 16.4868 37.8425 16.5784 37.9945 16.7039C38.1466 16.8293 38.2709 16.9857 38.3593 17.163C38.5525 17.5244 38.606 17.9457 38.5094 18.3448C38.4127 18.744 38.1727 19.0924 37.8363 19.3223C36.7841 19.923 35.6033 20.2553 34.3959 20.2903H33.5787C34.1941 18.8196 35.1874 17.5427 36.4552 16.5922ZM27.0984 19.3554C26.7619 19.1255 26.5219 18.7771 26.4253 18.3779C26.3286 17.9788 26.3821 17.5575 26.5754 17.1961C26.6633 17.02 26.7864 16.8644 26.937 16.739C27.0875 16.6137 27.2621 16.5214 27.4498 16.4681C27.5611 16.4564 27.6734 16.4564 27.7848 16.4681C28.0274 16.4685 28.2651 16.5373 28.4712 16.6666C29.7466 17.6113 30.7438 18.8897 31.3559 20.3647H30.5387C29.3282 20.3148 28.1477 19.9684 27.0984 19.3554ZM20.4546 22.4744C20.4546 22.3791 20.4733 22.2849 20.5095 22.197C20.5457 22.1091 20.5988 22.0294 20.6657 21.9625C20.7326 21.8955 20.8119 21.8427 20.8991 21.807C20.9863 21.7713 21.0797 21.7535 21.1737 21.7546H29.1985V28.4972H21.0266C20.8642 28.4684 20.7166 28.3834 20.6093 28.2566C20.5019 28.1298 20.4415 27.9692 20.4383 27.8023L20.4546 22.4744ZM22.7754 41.577C22.6807 41.5781 22.5867 41.5601 22.4989 41.5239C22.4112 41.4877 22.3315 41.4341 22.2645 41.3663C22.1975 41.2984 22.1446 41.2177 22.1088 41.1289C22.0731 41.0401 22.0552 40.9449 22.0563 40.849V29.9533H29.1985V41.577H22.7754ZM30.6123 41.577V29.9533H34.4531V41.577H30.6123ZM41.6035 41.577H35.8832V29.9533H43.0091V40.154C43.0091 40.5314 42.861 40.8934 42.5974 41.1602C42.3338 41.4271 41.9763 41.577 41.6035 41.577ZM44.6108 27.8023C44.6076 27.9692 44.5471 28.1298 44.4398 28.2566C44.3324 28.3834 44.1849 28.4684 44.0224 28.4972H35.8505V21.7546H43.908C44.0973 21.7546 44.279 21.8302 44.4136 21.9649C44.5483 22.0997 44.625 22.2827 44.6271 22.4744L44.6108 27.8023Z" fill="white"/>
</svg>
